<?xml version="1.0" encoding="UTF-8"?>
<!--Generator: Apple Native CoreSVG 175.5-->
<!DOCTYPE svg
PUBLIC "-//W3C//DTD SVG 1.1//EN"
       "http://www.w3.org/Graphics/SVG/1.1/DTD/svg11.dtd">
<svg version="1.1" xmlns="http://www.w3.org/2000/svg" xmlns:xlink="http://www.w3.org/1999/xlink" width="17.7734" height="24.1211">
 <g>
  <rect height="24.1211" opacity="0" width="17.7734" x="0" y="0"/>
  <path d="M0 12.7246C0 17.6465 3.96973 21.626 8.8916 21.626C13.8086 21.626 17.7734 17.6465 17.7734 12.7246C17.7734 7.79785 13.877 3.88184 8.96973 3.88184C8.61816 3.88184 8.28125 3.91602 7.97852 3.96973L9.92188 2.06055C10.1367 1.84082 10.2637 1.58691 10.2637 1.24512C10.2637 0.551758 9.72656 0 9.05273 0C8.70605 0 8.42285 0.117188 8.19824 0.356445L4.21387 4.41406C3.95508 4.66309 3.82324 4.99023 3.82324 5.32227C3.82324 5.67383 3.9502 5.97656 4.21387 6.23535L8.19824 10.2734C8.42285 10.498 8.70605 10.6104 9.04785 10.6104C9.72656 10.6104 10.2637 10.0781 10.2637 9.38965C10.2637 9.04785 10.1367 8.79395 9.91699 8.57422L7.72461 6.40137C8.08594 6.33301 8.51074 6.29883 8.96973 6.29883C12.4902 6.29883 15.2539 9.12109 15.2539 12.7246C15.2539 16.2549 12.4219 19.1064 8.8916 19.1064C5.35645 19.1064 2.50977 16.2549 2.50977 12.7246C2.50977 11.9629 2.00684 11.4355 1.27441 11.4355C0.532227 11.4355 0 11.9629 0 12.7246Z" fill="#ffffff" fill-opacity="0.85"/>
 </g>
</svg>
