<?xml version="1.0" encoding="UTF-8"?>
<!--Generator: Apple Native CoreSVG 175.5-->
<!DOCTYPE svg
PUBLIC "-//W3C//DTD SVG 1.1//EN"
       "http://www.w3.org/Graphics/SVG/1.1/DTD/svg11.dtd">
<svg version="1.1" xmlns="http://www.w3.org/2000/svg" xmlns:xlink="http://www.w3.org/1999/xlink" width="20.498" height="18.6914">
 <g>
  <rect height="18.6914" opacity="0" width="20.498" x="0" y="0"/>
  <path d="M3.44727 18.6914L17.0557 18.6914C19.2822 18.6914 20.498 17.4756 20.498 15.2637L20.498 3.44727C20.498 1.23047 19.2822 0.0195312 17.0557 0.0195312L3.44727 0.0195312C1.2207 0.0195312 0 1.22559 0 3.44727L0 15.2637C0 17.4805 1.2207 18.6914 3.44727 18.6914ZM3.63281 16.1719C2.90039 16.1719 2.51953 15.8203 2.51953 15.0488L2.51953 6.35742C2.51953 5.59082 2.90039 5.23926 3.63281 5.23926L16.8604 5.23926C17.5928 5.23926 17.9785 5.59082 17.9785 6.35742L17.9785 15.0488C17.9785 15.8203 17.5928 16.1719 16.8604 16.1719ZM8.41797 8.4082L8.99414 8.4082C9.35059 8.4082 9.47266 8.2959 9.47266 7.93945L9.47266 7.36328C9.47266 7.00684 9.35059 6.88965 8.99414 6.88965L8.41797 6.88965C8.06152 6.88965 7.93457 7.00684 7.93457 7.36328L7.93457 7.93945C7.93457 8.2959 8.06152 8.4082 8.41797 8.4082ZM11.5186 8.4082L12.0947 8.4082C12.4512 8.4082 12.583 8.2959 12.583 7.93945L12.583 7.36328C12.583 7.00684 12.4512 6.88965 12.0947 6.88965L11.5186 6.88965C11.1621 6.88965 11.0352 7.00684 11.0352 7.36328L11.0352 7.93945C11.0352 8.2959 11.1621 8.4082 11.5186 8.4082ZM14.624 8.4082L15.2002 8.4082C15.5566 8.4082 15.6836 8.2959 15.6836 7.93945L15.6836 7.36328C15.6836 7.00684 15.5566 6.88965 15.2002 6.88965L14.624 6.88965C14.2676 6.88965 14.1455 7.00684 14.1455 7.36328L14.1455 7.93945C14.1455 8.2959 14.2676 8.4082 14.624 8.4082ZM5.31738 11.46L5.88379 11.46C6.25 11.46 6.37207 11.3477 6.37207 10.9912L6.37207 10.415C6.37207 10.0586 6.25 9.94629 5.88379 9.94629L5.31738 9.94629C4.95117 9.94629 4.8291 10.0586 4.8291 10.415L4.8291 10.9912C4.8291 11.3477 4.95117 11.46 5.31738 11.46ZM8.41797 11.46L8.99414 11.46C9.35059 11.46 9.47266 11.3477 9.47266 10.9912L9.47266 10.415C9.47266 10.0586 9.35059 9.94629 8.99414 9.94629L8.41797 9.94629C8.06152 9.94629 7.93457 10.0586 7.93457 10.415L7.93457 10.9912C7.93457 11.3477 8.06152 11.46 8.41797 11.46ZM11.5186 11.46L12.0947 11.46C12.4512 11.46 12.583 11.3477 12.583 10.9912L12.583 10.415C12.583 10.0586 12.4512 9.94629 12.0947 9.94629L11.5186 9.94629C11.1621 9.94629 11.0352 10.0586 11.0352 10.415L11.0352 10.9912C11.0352 11.3477 11.1621 11.46 11.5186 11.46ZM14.624 11.46L15.2002 11.46C15.5566 11.46 15.6836 11.3477 15.6836 10.9912L15.6836 10.415C15.6836 10.0586 15.5566 9.94629 15.2002 9.94629L14.624 9.94629C14.2676 9.94629 14.1455 10.0586 14.1455 10.415L14.1455 10.9912C14.1455 11.3477 14.2676 11.46 14.624 11.46ZM5.31738 14.5166L5.88379 14.5166C6.25 14.5166 6.37207 14.4043 6.37207 14.043L6.37207 13.4717C6.37207 13.1104 6.25 13.0029 5.88379 13.0029L5.31738 13.0029C4.95117 13.0029 4.8291 13.1104 4.8291 13.4717L4.8291 14.043C4.8291 14.4043 4.95117 14.5166 5.31738 14.5166ZM8.41797 14.5166L8.99414 14.5166C9.35059 14.5166 9.47266 14.4043 9.47266 14.043L9.47266 13.4717C9.47266 13.1104 9.35059 13.0029 8.99414 13.0029L8.41797 13.0029C8.06152 13.0029 7.93457 13.1104 7.93457 13.4717L7.93457 14.043C7.93457 14.4043 8.06152 14.5166 8.41797 14.5166ZM11.5186 14.5166L12.0947 14.5166C12.4512 14.5166 12.583 14.4043 12.583 14.043L12.583 13.4717C12.583 13.1104 12.4512 13.0029 12.0947 13.0029L11.5186 13.0029C11.1621 13.0029 11.0352 13.1104 11.0352 13.4717L11.0352 14.043C11.0352 14.4043 11.1621 14.5166 11.5186 14.5166Z" fill="#ffffff" fill-opacity="0.85"/>
 </g>
</svg>
