<?xml version="1.0" encoding="UTF-8"?>
<!--Generator: Apple Native CoreSVG 175.5-->
<!DOCTYPE svg
PUBLIC "-//W3C//DTD SVG 1.1//EN"
       "http://www.w3.org/Graphics/SVG/1.1/DTD/svg11.dtd">
<svg version="1.1" xmlns="http://www.w3.org/2000/svg" xmlns:xlink="http://www.w3.org/1999/xlink" width="10.6152" height="17.8906">
 <g>
  <rect height="17.8906" opacity="0" width="10.6152" x="0" y="0"/>
  <path d="M10.6152 8.94043C10.6055 8.45215 10.4346 8.05664 10.0342 7.66602L2.65625 0.439453C2.35352 0.141602 2.00195 0 1.56738 0C0.708008 0 0 0.693359 0 1.55273C0 1.97754 0.175781 2.37305 0.50293 2.69531L6.93848 8.93555L0.50293 15.1855C0.180664 15.5029 0 15.8984 0 16.333C0 17.1875 0.708008 17.8857 1.56738 17.8857C1.99219 17.8857 2.35352 17.7441 2.65625 17.4414L10.0342 10.2148C10.4395 9.81934 10.6152 9.42383 10.6152 8.94043Z" fill="#ffffff" fill-opacity="0.85"/>
 </g>
</svg>
