<?xml version="1.0" encoding="UTF-8"?>
<!--Generator: Apple Native CoreSVG 175.5-->
<!DOCTYPE svg
PUBLIC "-//W3C//DTD SVG 1.1//EN"
       "http://www.w3.org/Graphics/SVG/1.1/DTD/svg11.dtd">
<svg version="1.1" xmlns="http://www.w3.org/2000/svg" xmlns:xlink="http://www.w3.org/1999/xlink" width="18.8818" height="18.877">
 <g>
  <rect height="18.877" opacity="0" width="18.8818" x="0" y="0"/>
  <path d="M5.43457 7.69531L5.43457 11.2012L3.84766 11.2061C1.72363 11.2158 0 12.8955 0 15.0244C0 17.1436 1.71875 18.877 3.85254 18.877C5.9668 18.877 7.69043 17.1387 7.69043 15.0244L7.69043 13.4668L11.1914 13.4668L11.1914 15.0244C11.1914 17.1387 12.9199 18.877 15.0293 18.877C17.168 18.877 18.8818 17.1436 18.8818 15.0244C18.8818 12.8955 17.1631 11.2158 15.0391 11.2061L13.4473 11.2012L13.4473 7.69531L15.0391 7.68555C17.1631 7.67578 18.8818 5.99609 18.8818 3.86719C18.8818 1.75293 17.168 0.00976562 15.0293 0.00976562C12.9199 0.00976562 11.1914 1.75781 11.1914 3.86719L11.1914 5.42969L7.69043 5.42969L7.69043 3.86719C7.69043 1.75781 5.9668 0.00976562 3.85254 0.00976562C1.71875 0.00976562 0 1.75293 0 3.86719C0 5.99609 1.72363 7.67578 3.84766 7.68555ZM3.91602 5.44922C2.99805 5.44922 2.28516 4.74121 2.28516 3.87207C2.28516 3.00781 2.98828 2.2998 3.85254 2.2998C4.70215 2.2998 5.41992 3.01758 5.41992 3.93555L5.41992 5.44922ZM14.9658 5.44922L13.4619 5.44922L13.4619 3.93555C13.4619 3.01758 14.1797 2.2998 15.0293 2.2998C15.8936 2.2998 16.5967 3.00781 16.5967 3.87207C16.5967 4.74121 15.8838 5.44922 14.9658 5.44922ZM7.7002 11.2109L7.7002 7.68066L11.1865 7.68066L11.1865 11.2109ZM3.91602 13.4375L5.41992 13.4375L5.41992 14.9512C5.41992 15.874 4.70215 16.582 3.85254 16.582C2.98828 16.582 2.28516 15.8838 2.28516 15.0146C2.28516 14.1455 2.99805 13.4375 3.91602 13.4375ZM14.9658 13.4375C15.8838 13.4375 16.5967 14.1455 16.5967 15.0146C16.5967 15.8838 15.8936 16.582 15.0293 16.582C14.1797 16.582 13.4619 15.874 13.4619 14.9512L13.4619 13.4375Z" fill="#ffffff" fill-opacity="0.85"/>
 </g>
</svg>
