<?xml version="1.0" encoding="UTF-8"?><svg version="1.1" width="157px" height="157px" viewBox="0 0 157.0 157.0" xmlns="http://www.w3.org/2000/svg" xmlns:xlink="http://www.w3.org/1999/xlink"><defs><clipPath id="i0"><path d="M1440,0 L1440,16103 L0,16103 L0,0 L1440,0 Z"></path></clipPath><filter id="i1" x="-3.8333147%" y="-3.83446474%" filterUnits="userSpaceOnUse" width="107.666629%" height="107.668929%"><feGaussianBlur stdDeviation="1" in="SourceAlpha" result="i2"></feGaussianBlur><feOffset dx="2" dy="2" in="i2" result="i3"></feOffset><feColorMatrix values="0 0 0 0.0 0 0 0 0 0.0 0 0 0 0 0.0 0 0 0 0 0.5 0" type="matrix" in="i3"></feColorMatrix></filter><clipPath id="i4"><path d="M76.26125,0 C118.379175,0 152.5225,34.1328158 152.5225,76.2377778 C152.5225,118.34274 118.379175,152.475556 76.26125,152.475556 C34.1433246,152.475556 0,118.34274 0,76.2377778 C0,34.1328158 34.1433246,0 76.26125,0 Z"></path></clipPath><clipPath id="i5"><path d="M9,6.11344639 C10.4974825,6.11344639 11.9712988,6.48710084 13.2879012,7.20055163 L54.493434,29.5293275 C58.8636052,31.8974699 60.4865701,37.3599523 58.1184276,41.7301234 C57.2870644,43.2643214 56.0276321,44.5237538 54.493434,45.355117 L13.2879012,67.6838928 C8.91773008,70.0520352 3.45524768,68.4290703 1.08710524,64.0588992 C0.373654449,62.7422968 6.40510957e-15,61.2684806 0,59.7709981 L0,15.1134464 C-6.08718376e-16,10.1428836 4.02943725,6.11344639 9,6.11344639 Z"></path></clipPath></defs><g transform="translate(-474.0 -7717.0)"><g clip-path="url(#i0)"><g transform="translate(189.0 7591.0)"><g transform="translate(285.19 126.31111111111109)"><path d="M76.26125,152.475556 C118.379175,152.475556 152.5225,118.34274 152.5225,76.2377778 C152.5225,34.1328158 118.379175,0 76.26125,0 C34.1433246,0 0,34.1328158 0,76.2377778 C0,118.34274 34.1433246,152.475556 76.26125,152.475556 Z" stroke="none" fill="#000000" filter="url(#i1)"></path><g clip-path="url(#i4)"><polygon points="0,0 152.5225,0 152.5225,152.475556 0,152.475556 0,0" stroke="none" fill="#343131"></polygon></g><g transform="translate(51.442500000000166 38.79555555555555)"><g clip-path="url(#i5)"><polygon points="0,6.11344639 59.2072571,6.11344639 59.2072571,68.7727223 0,68.7727223 0,6.11344639" stroke="none" fill="#D7D7D7"></polygon><path d="M13.2879012,7.20055163 L54.493434,29.5293275 C58.8636052,31.8974699 60.4865701,37.3599523 58.1184276,41.7301234 C57.2870644,43.2643214 56.0276321,44.5237538 54.493434,45.355117 L13.2879012,67.6838928 C8.91773008,70.0520352 3.45524768,68.4290703 1.08710524,64.0588992 C0.373654449,62.7422968 6.40510957e-15,61.2684806 0,59.7709981 L0,15.1134464 C-6.08718376e-16,10.1428836 4.02943725,6.11344639 9,6.11344639 C10.4974825,6.11344639 11.9712988,6.48710084 13.2879012,7.20055163 Z" stroke="#969696" stroke-width="2" fill="none" stroke-miterlimit="5"></path></g></g></g></g></g></g></svg>